G04 #@! TF.GenerationSoftware,KiCad,Pcbnew,(6.0.11)*
G04 #@! TF.CreationDate,2023-07-27T19:06:46+09:00*
G04 #@! TF.ProjectId,3340VCO,33333430-5643-44f2-9e6b-696361645f70,1.0*
G04 #@! TF.SameCoordinates,Original*
G04 #@! TF.FileFunction,Legend,Bot*
G04 #@! TF.FilePolarity,Positive*
%FSLAX46Y46*%
G04 Gerber Fmt 4.6, Leading zero omitted, Abs format (unit mm)*
G04 Created by KiCad (PCBNEW (6.0.11)) date 2023-07-27 19:06:46*
%MOMM*%
%LPD*%
G01*
G04 APERTURE LIST*
G04 Aperture macros list*
%AMRoundRect*
0 Rectangle with rounded corners*
0 $1 Rounding radius*
0 $2 $3 $4 $5 $6 $7 $8 $9 X,Y pos of 4 corners*
0 Add a 4 corners polygon primitive as box body*
4,1,4,$2,$3,$4,$5,$6,$7,$8,$9,$2,$3,0*
0 Add four circle primitives for the rounded corners*
1,1,$1+$1,$2,$3*
1,1,$1+$1,$4,$5*
1,1,$1+$1,$6,$7*
1,1,$1+$1,$8,$9*
0 Add four rect primitives between the rounded corners*
20,1,$1+$1,$2,$3,$4,$5,0*
20,1,$1+$1,$4,$5,$6,$7,0*
20,1,$1+$1,$6,$7,$8,$9,0*
20,1,$1+$1,$8,$9,$2,$3,0*%
G04 Aperture macros list end*
%ADD10C,1.600000*%
%ADD11O,1.600000X1.600000*%
%ADD12C,3.200000*%
%ADD13R,1.600000X1.600000*%
%ADD14R,1.700000X1.700000*%
%ADD15O,1.700000X1.700000*%
%ADD16R,1.800000X1.800000*%
%ADD17C,1.800000*%
%ADD18C,1.440000*%
%ADD19RoundRect,0.250000X-0.600000X-0.750000X0.600000X-0.750000X0.600000X0.750000X-0.600000X0.750000X0*%
%ADD20O,1.700000X2.000000*%
%ADD21RoundRect,0.250000X-0.600000X-0.725000X0.600000X-0.725000X0.600000X0.725000X-0.600000X0.725000X0*%
%ADD22O,1.700000X1.950000*%
%ADD23RoundRect,0.250000X0.725000X-0.600000X0.725000X0.600000X-0.725000X0.600000X-0.725000X-0.600000X0*%
%ADD24O,1.950000X1.700000*%
%ADD25RoundRect,0.250000X0.600000X0.750000X-0.600000X0.750000X-0.600000X-0.750000X0.600000X-0.750000X0*%
%ADD26RoundRect,0.250000X0.600000X0.725000X-0.600000X0.725000X-0.600000X-0.725000X0.600000X-0.725000X0*%
%ADD27RoundRect,0.250000X0.600000X0.600000X-0.600000X0.600000X-0.600000X-0.600000X0.600000X-0.600000X0*%
%ADD28C,1.700000*%
G04 APERTURE END LIST*
%LPC*%
D10*
X153702523Y-105033323D03*
X158702523Y-105033323D03*
X154305000Y-72390000D03*
D11*
X164465000Y-72390000D03*
D10*
X169582500Y-83105000D03*
X169582500Y-80605000D03*
X169582500Y-78105000D03*
X169582500Y-75605000D03*
X169582500Y-73105000D03*
X174582500Y-83105000D03*
X174582500Y-80605000D03*
X174582500Y-78105000D03*
X174582500Y-75605000D03*
X174582500Y-73105000D03*
X146050000Y-143510000D03*
D11*
X135890000Y-143510000D03*
D12*
X169705000Y-146225000D03*
D13*
X156220000Y-57160000D03*
D11*
X156220000Y-59700000D03*
X156220000Y-62240000D03*
X156220000Y-64780000D03*
X163840000Y-64780000D03*
X163840000Y-62240000D03*
X163840000Y-59700000D03*
X163840000Y-57160000D03*
D14*
X130810000Y-58420000D03*
D15*
X130810000Y-55880000D03*
D10*
X141010000Y-132080000D03*
X146010000Y-132080000D03*
X154305000Y-75565000D03*
D11*
X164465000Y-75565000D03*
D16*
X176130000Y-121245000D03*
D17*
X176130000Y-118745000D03*
X176130000Y-116245000D03*
D16*
X120015000Y-59055000D03*
D17*
X117475000Y-59055000D03*
D10*
X127040000Y-113030000D03*
X132040000Y-113030000D03*
X137805000Y-85080000D03*
D11*
X147965000Y-85080000D03*
D10*
X125095000Y-84455000D03*
D11*
X135255000Y-84455000D03*
D10*
X137795000Y-104130000D03*
D11*
X147955000Y-104130000D03*
D10*
X154305000Y-78740000D03*
D11*
X164465000Y-78740000D03*
D13*
X149235000Y-134005000D03*
D11*
X149235000Y-136545000D03*
X149235000Y-139085000D03*
X149235000Y-141625000D03*
X156855000Y-141625000D03*
X156855000Y-139085000D03*
X156855000Y-136545000D03*
X156855000Y-134005000D03*
D13*
X117475000Y-66675000D03*
D10*
X119975000Y-66675000D03*
D18*
X132725000Y-78740000D03*
X130185000Y-78740000D03*
X127645000Y-78740000D03*
D12*
X169705000Y-53165000D03*
D19*
X141625000Y-57260000D03*
D20*
X144125000Y-57260000D03*
D10*
X159405000Y-127645000D03*
D11*
X149245000Y-127645000D03*
D12*
X104600000Y-146225000D03*
D16*
X176130000Y-100925000D03*
D17*
X176130000Y-98425000D03*
X176130000Y-95925000D03*
D10*
X154305000Y-85090000D03*
D11*
X164465000Y-85090000D03*
D10*
X165100000Y-135255000D03*
X162600000Y-135255000D03*
X146050000Y-137160000D03*
D11*
X135890000Y-137160000D03*
D21*
X155040000Y-113775000D03*
D22*
X157540000Y-113775000D03*
X160040000Y-113775000D03*
X162540000Y-113775000D03*
X165040000Y-113775000D03*
X167540000Y-113775000D03*
D10*
X153670000Y-94615000D03*
X158670000Y-94615000D03*
X104775000Y-59055000D03*
D11*
X114935000Y-59055000D03*
D10*
X137805000Y-81905000D03*
D11*
X147965000Y-81905000D03*
D10*
X137795000Y-91440000D03*
D11*
X147955000Y-91440000D03*
D10*
X142835000Y-110490000D03*
X137835000Y-110490000D03*
X137805000Y-88255000D03*
D11*
X147965000Y-88255000D03*
D10*
X113665000Y-94180000D03*
D11*
X123825000Y-94180000D03*
D10*
X158710000Y-67935000D03*
X156210000Y-67935000D03*
D14*
X105410000Y-109855000D03*
D15*
X107950000Y-109855000D03*
D10*
X140980000Y-123180000D03*
D11*
X130820000Y-123180000D03*
D16*
X176130000Y-60285000D03*
D17*
X176130000Y-57785000D03*
X176130000Y-55285000D03*
D10*
X149245000Y-124470000D03*
D11*
X159405000Y-124470000D03*
D16*
X117475000Y-84455000D03*
D17*
X120015000Y-84455000D03*
D10*
X127625000Y-118100000D03*
X125125000Y-118100000D03*
X142835000Y-107315000D03*
X137835000Y-107315000D03*
D14*
X163195000Y-141605000D03*
D15*
X163195000Y-144145000D03*
D18*
X106680000Y-94615000D03*
X106680000Y-97155000D03*
X106680000Y-99695000D03*
D16*
X176130000Y-141565000D03*
D17*
X176130000Y-139065000D03*
X176130000Y-136565000D03*
D23*
X166370000Y-102870000D03*
D24*
X166370000Y-100370000D03*
X166370000Y-97870000D03*
X166370000Y-95370000D03*
D10*
X125095000Y-87830000D03*
D11*
X135255000Y-87830000D03*
D10*
X154305000Y-81915000D03*
D11*
X164465000Y-81915000D03*
D25*
X126980000Y-139700000D03*
D20*
X124480000Y-139700000D03*
D10*
X163830000Y-53965000D03*
X161330000Y-53965000D03*
X114935000Y-84455000D03*
D11*
X104775000Y-84455000D03*
D18*
X149900000Y-118110000D03*
X147360000Y-120650000D03*
X144820000Y-118110000D03*
D10*
X122555000Y-132070000D03*
X120055000Y-132070000D03*
D13*
X127000000Y-91430000D03*
D11*
X127000000Y-93970000D03*
X127000000Y-96510000D03*
X127000000Y-99050000D03*
X127000000Y-101590000D03*
X127000000Y-104130000D03*
X127000000Y-106670000D03*
X127000000Y-109210000D03*
X134620000Y-109210000D03*
X134620000Y-106670000D03*
X134620000Y-104130000D03*
X134620000Y-101590000D03*
X134620000Y-99050000D03*
X134620000Y-96510000D03*
X134620000Y-93970000D03*
X134620000Y-91430000D03*
D18*
X114935000Y-106680000D03*
X117475000Y-104140000D03*
X120015000Y-106680000D03*
D10*
X147955000Y-100955000D03*
D11*
X137795000Y-100955000D03*
D10*
X146050000Y-140335000D03*
D11*
X135890000Y-140335000D03*
D10*
X130820000Y-126355000D03*
D11*
X140980000Y-126355000D03*
D12*
X104600000Y-53165000D03*
D13*
X120025000Y-121295000D03*
D11*
X120025000Y-123835000D03*
X120025000Y-126375000D03*
X120025000Y-128915000D03*
X127645000Y-128915000D03*
X127645000Y-126375000D03*
X127645000Y-123835000D03*
X127645000Y-121295000D03*
D10*
X147955000Y-97780000D03*
D11*
X137795000Y-97780000D03*
D10*
X147955000Y-94615000D03*
D11*
X137795000Y-94615000D03*
D10*
X116850000Y-126365000D03*
D11*
X106690000Y-126365000D03*
D26*
X116205000Y-139700000D03*
D22*
X113705000Y-139700000D03*
X111205000Y-139700000D03*
X108705000Y-139700000D03*
D27*
X110607500Y-76835000D03*
D28*
X108067500Y-76835000D03*
X110607500Y-74295000D03*
X108067500Y-74295000D03*
X110607500Y-71755000D03*
X108067500Y-71755000D03*
X110607500Y-69215000D03*
X108067500Y-69215000D03*
X110607500Y-66675000D03*
X108067500Y-66675000D03*
D10*
X113665000Y-100530000D03*
D11*
X123825000Y-100530000D03*
D13*
X120015000Y-76835000D03*
D10*
X117515000Y-76835000D03*
X137805000Y-78730000D03*
D11*
X147965000Y-78730000D03*
D10*
X158710000Y-100965000D03*
X153710000Y-100965000D03*
X151765000Y-144780000D03*
X149265000Y-144780000D03*
X170180000Y-121285000D03*
X167680000Y-121285000D03*
X156825000Y-130810000D03*
X154325000Y-130810000D03*
X106690000Y-129540000D03*
D11*
X116850000Y-129540000D03*
D13*
X162590000Y-124480000D03*
D11*
X162590000Y-127020000D03*
X162590000Y-129560000D03*
X162590000Y-132100000D03*
X170210000Y-132100000D03*
X170210000Y-129560000D03*
X170210000Y-127020000D03*
X170210000Y-124480000D03*
D10*
X113665000Y-97345000D03*
D11*
X123825000Y-97345000D03*
M02*
