M48
; DRILL file {KiCad (6.0.11)} date Thu Jul 27 19:07:22 2023
; FORMAT={-:-/ absolute / metric / decimal}
; #@! TF.CreationDate,2023-07-27T19:07:22+09:00
; #@! TF.GenerationSoftware,Kicad,Pcbnew,(6.0.11)
; #@! TF.FileFunction,Plated,1,2,PTH
FMAT,2
METRIC
; #@! TA.AperFunction,Plated,PTH,ViaDrill
T1C0.400
; #@! TA.AperFunction,Plated,PTH,ComponentDrill
T2C0.800
; #@! TA.AperFunction,Plated,PTH,ComponentDrill
T3C0.900
; #@! TA.AperFunction,Plated,PTH,ComponentDrill
T4C0.950
; #@! TA.AperFunction,Plated,PTH,ComponentDrill
T5C1.000
%
G90
G05
T1
X152.4Y-114.3
T2
X104.775Y-59.055
X104.775Y-84.455
X106.68Y-94.615
X106.68Y-97.155
X106.68Y-99.695
X106.69Y-126.365
X106.69Y-129.54
X113.665Y-94.18
X113.665Y-97.345
X113.665Y-100.53
X114.935Y-59.055
X114.935Y-84.455
X114.935Y-106.68
X116.85Y-126.365
X116.85Y-129.54
X117.475Y-66.675
X117.475Y-104.14
X117.515Y-76.835
X119.975Y-66.675
X120.015Y-76.835
X120.015Y-106.68
X120.025Y-121.295
X120.025Y-123.835
X120.025Y-126.375
X120.025Y-128.915
X120.055Y-132.07
X122.555Y-132.07
X123.825Y-94.18
X123.825Y-97.345
X123.825Y-100.53
X125.095Y-84.455
X125.095Y-87.83
X125.125Y-118.1
X127.0Y-91.43
X127.0Y-93.97
X127.0Y-96.51
X127.0Y-99.05
X127.0Y-101.59
X127.0Y-104.13
X127.0Y-106.67
X127.0Y-109.21
X127.04Y-113.03
X127.625Y-118.1
X127.645Y-78.74
X127.645Y-121.295
X127.645Y-123.835
X127.645Y-126.375
X127.645Y-128.915
X130.185Y-78.74
X130.82Y-123.18
X130.82Y-126.355
X132.04Y-113.03
X132.725Y-78.74
X134.62Y-91.43
X134.62Y-93.97
X134.62Y-96.51
X134.62Y-99.05
X134.62Y-101.59
X134.62Y-104.13
X134.62Y-106.67
X134.62Y-109.21
X135.255Y-84.455
X135.255Y-87.83
X135.89Y-137.16
X135.89Y-140.335
X135.89Y-143.51
X137.795Y-91.44
X137.795Y-94.615
X137.795Y-97.78
X137.795Y-100.955
X137.795Y-104.13
X137.805Y-78.73
X137.805Y-81.905
X137.805Y-85.08
X137.805Y-88.255
X137.835Y-107.315
X137.835Y-110.49
X140.98Y-123.18
X140.98Y-126.355
X141.01Y-132.08
X142.835Y-107.315
X142.835Y-110.49
X144.82Y-118.11
X146.01Y-132.08
X146.05Y-137.16
X146.05Y-140.335
X146.05Y-143.51
X147.36Y-120.65
X147.955Y-91.44
X147.955Y-94.615
X147.955Y-97.78
X147.955Y-100.955
X147.955Y-104.13
X147.965Y-78.73
X147.965Y-81.905
X147.965Y-85.08
X147.965Y-88.255
X149.235Y-134.005
X149.235Y-136.545
X149.235Y-139.085
X149.235Y-141.625
X149.245Y-124.47
X149.245Y-127.645
X149.265Y-144.78
X149.9Y-118.11
X151.765Y-144.78
X153.67Y-94.615
X153.703Y-105.033
X153.71Y-100.965
X154.305Y-72.39
X154.305Y-75.565
X154.305Y-78.74
X154.305Y-81.915
X154.305Y-85.09
X154.325Y-130.81
X156.21Y-67.935
X156.22Y-57.16
X156.22Y-59.7
X156.22Y-62.24
X156.22Y-64.78
X156.825Y-130.81
X156.855Y-134.005
X156.855Y-136.545
X156.855Y-139.085
X156.855Y-141.625
X158.67Y-94.615
X158.703Y-105.033
X158.71Y-67.935
X158.71Y-100.965
X159.405Y-124.47
X159.405Y-127.645
X161.33Y-53.965
X162.59Y-124.48
X162.59Y-127.02
X162.59Y-129.56
X162.59Y-132.1
X162.6Y-135.255
X163.83Y-53.965
X163.84Y-57.16
X163.84Y-59.7
X163.84Y-62.24
X163.84Y-64.78
X164.465Y-72.39
X164.465Y-75.565
X164.465Y-78.74
X164.465Y-81.915
X164.465Y-85.09
X165.1Y-135.255
X167.68Y-121.285
X169.582Y-73.105
X169.582Y-75.605
X169.582Y-78.105
X169.582Y-80.605
X169.582Y-83.105
X170.18Y-121.285
X170.21Y-124.48
X170.21Y-127.02
X170.21Y-129.56
X170.21Y-132.1
X174.582Y-73.105
X174.582Y-75.605
X174.582Y-78.105
X174.582Y-80.605
X174.582Y-83.105
T3
X117.475Y-59.055
X117.475Y-84.455
X120.015Y-59.055
X120.015Y-84.455
T4
X108.705Y-139.7
X111.205Y-139.7
X113.705Y-139.7
X116.205Y-139.7
X155.04Y-113.775
X157.54Y-113.775
X160.04Y-113.775
X162.54Y-113.775
X165.04Y-113.775
X166.37Y-95.37
X166.37Y-97.87
X166.37Y-100.37
X166.37Y-102.87
X167.54Y-113.775
T5
X105.41Y-109.855
X107.95Y-109.855
X108.067Y-66.675
X108.067Y-69.215
X108.067Y-71.755
X108.067Y-74.295
X108.067Y-76.835
X110.608Y-66.675
X110.608Y-69.215
X110.608Y-71.755
X110.608Y-74.295
X110.608Y-76.835
X124.48Y-139.7
X126.98Y-139.7
X130.81Y-55.88
X130.81Y-58.42
X141.625Y-57.26
X144.125Y-57.26
X163.195Y-141.605
X163.195Y-144.145
X176.13Y-55.285
X176.13Y-57.785
X176.13Y-60.285
X176.13Y-95.925
X176.13Y-98.425
X176.13Y-100.925
X176.13Y-116.245
X176.13Y-118.745
X176.13Y-121.245
X176.13Y-136.565
X176.13Y-139.065
X176.13Y-141.565
T0
M30
