%TF.GenerationSoftware,KiCad,Pcbnew,(6.0.11)*%
%TF.CreationDate,2023-07-18T09:20:42+09:00*%
%TF.ProjectId,3340VCO,33333430-5643-44f2-9e6b-696361645f70,1.0*%
%TF.SameCoordinates,Original*%
%TF.FileFunction,Drillmap*%
%TF.FilePolarity,Positive*%
%FSLAX45Y45*%
G04 Gerber Fmt 4.5, Leading zero omitted, Abs format (unit mm)*
G04 Created by KiCad (PCBNEW (6.0.11)) date 2023-07-18 09:20:42*
%MOMM*%
%LPD*%
G01*
G04 APERTURE LIST*
%ADD10C,0.100000*%
%ADD11C,0.200000*%
%ADD12C,0.320000*%
G04 APERTURE END LIST*
D10*
X17970500Y-5016500D02*
X10160000Y-5016500D01*
X10160000Y-5016500D02*
X10160000Y-14922500D01*
X10160000Y-14922500D02*
X17970500Y-14922500D01*
X17970500Y-14922500D02*
X17970500Y-5016500D01*
D11*
D12*
X10300000Y-5156500D02*
X10620000Y-5476500D01*
X10620000Y-5156500D02*
X10300000Y-5476500D01*
X10300000Y-14462500D02*
X10620000Y-14782500D01*
X10620000Y-14462500D02*
X10300000Y-14782500D01*
X16810500Y-5156500D02*
X17130500Y-5476500D01*
X17130500Y-5156500D02*
X16810500Y-5476500D01*
X16810500Y-14462500D02*
X17130500Y-14782500D01*
X17130500Y-14462500D02*
X16810500Y-14782500D01*
D11*
X10412619Y-15237976D02*
X10412619Y-15037976D01*
X10460238Y-15037976D01*
X10488810Y-15047500D01*
X10507857Y-15066548D01*
X10517381Y-15085595D01*
X10526905Y-15123690D01*
X10526905Y-15152262D01*
X10517381Y-15190357D01*
X10507857Y-15209405D01*
X10488810Y-15228452D01*
X10460238Y-15237976D01*
X10412619Y-15237976D01*
X10612619Y-15237976D02*
X10612619Y-15104643D01*
X10612619Y-15142738D02*
X10622143Y-15123690D01*
X10631667Y-15114167D01*
X10650714Y-15104643D01*
X10669762Y-15104643D01*
X10736429Y-15237976D02*
X10736429Y-15104643D01*
X10736429Y-15037976D02*
X10726905Y-15047500D01*
X10736429Y-15057024D01*
X10745952Y-15047500D01*
X10736429Y-15037976D01*
X10736429Y-15057024D01*
X10860238Y-15237976D02*
X10841190Y-15228452D01*
X10831667Y-15209405D01*
X10831667Y-15037976D01*
X10965000Y-15237976D02*
X10945952Y-15228452D01*
X10936429Y-15209405D01*
X10936429Y-15037976D01*
X11193571Y-15237976D02*
X11193571Y-15037976D01*
X11260238Y-15180833D01*
X11326905Y-15037976D01*
X11326905Y-15237976D01*
X11507857Y-15237976D02*
X11507857Y-15133214D01*
X11498333Y-15114167D01*
X11479286Y-15104643D01*
X11441190Y-15104643D01*
X11422143Y-15114167D01*
X11507857Y-15228452D02*
X11488809Y-15237976D01*
X11441190Y-15237976D01*
X11422143Y-15228452D01*
X11412619Y-15209405D01*
X11412619Y-15190357D01*
X11422143Y-15171309D01*
X11441190Y-15161786D01*
X11488809Y-15161786D01*
X11507857Y-15152262D01*
X11603095Y-15104643D02*
X11603095Y-15304643D01*
X11603095Y-15114167D02*
X11622143Y-15104643D01*
X11660238Y-15104643D01*
X11679286Y-15114167D01*
X11688809Y-15123690D01*
X11698333Y-15142738D01*
X11698333Y-15199881D01*
X11688809Y-15218928D01*
X11679286Y-15228452D01*
X11660238Y-15237976D01*
X11622143Y-15237976D01*
X11603095Y-15228452D01*
X11784048Y-15218928D02*
X11793571Y-15228452D01*
X11784048Y-15237976D01*
X11774524Y-15228452D01*
X11784048Y-15218928D01*
X11784048Y-15237976D01*
X11784048Y-15114167D02*
X11793571Y-15123690D01*
X11784048Y-15133214D01*
X11774524Y-15123690D01*
X11784048Y-15114167D01*
X11784048Y-15133214D01*
X9955000Y-15467500D02*
X10155000Y-15667500D01*
X10155000Y-15467500D02*
X9955000Y-15667500D01*
X10393571Y-15457976D02*
X10517381Y-15457976D01*
X10450714Y-15534167D01*
X10479286Y-15534167D01*
X10498333Y-15543690D01*
X10507857Y-15553214D01*
X10517381Y-15572262D01*
X10517381Y-15619881D01*
X10507857Y-15638928D01*
X10498333Y-15648452D01*
X10479286Y-15657976D01*
X10422143Y-15657976D01*
X10403095Y-15648452D01*
X10393571Y-15638928D01*
X10603095Y-15638928D02*
X10612619Y-15648452D01*
X10603095Y-15657976D01*
X10593571Y-15648452D01*
X10603095Y-15638928D01*
X10603095Y-15657976D01*
X10688810Y-15477024D02*
X10698333Y-15467500D01*
X10717381Y-15457976D01*
X10765000Y-15457976D01*
X10784048Y-15467500D01*
X10793571Y-15477024D01*
X10803095Y-15496071D01*
X10803095Y-15515119D01*
X10793571Y-15543690D01*
X10679286Y-15657976D01*
X10803095Y-15657976D01*
X10926905Y-15457976D02*
X10945952Y-15457976D01*
X10965000Y-15467500D01*
X10974524Y-15477024D01*
X10984048Y-15496071D01*
X10993571Y-15534167D01*
X10993571Y-15581786D01*
X10984048Y-15619881D01*
X10974524Y-15638928D01*
X10965000Y-15648452D01*
X10945952Y-15657976D01*
X10926905Y-15657976D01*
X10907857Y-15648452D01*
X10898333Y-15638928D01*
X10888810Y-15619881D01*
X10879286Y-15581786D01*
X10879286Y-15534167D01*
X10888810Y-15496071D01*
X10898333Y-15477024D01*
X10907857Y-15467500D01*
X10926905Y-15457976D01*
X11117381Y-15457976D02*
X11136429Y-15457976D01*
X11155476Y-15467500D01*
X11165000Y-15477024D01*
X11174524Y-15496071D01*
X11184048Y-15534167D01*
X11184048Y-15581786D01*
X11174524Y-15619881D01*
X11165000Y-15638928D01*
X11155476Y-15648452D01*
X11136429Y-15657976D01*
X11117381Y-15657976D01*
X11098333Y-15648452D01*
X11088810Y-15638928D01*
X11079286Y-15619881D01*
X11069762Y-15581786D01*
X11069762Y-15534167D01*
X11079286Y-15496071D01*
X11088810Y-15477024D01*
X11098333Y-15467500D01*
X11117381Y-15457976D01*
X11269762Y-15657976D02*
X11269762Y-15524643D01*
X11269762Y-15543690D02*
X11279286Y-15534167D01*
X11298333Y-15524643D01*
X11326905Y-15524643D01*
X11345952Y-15534167D01*
X11355476Y-15553214D01*
X11355476Y-15657976D01*
X11355476Y-15553214D02*
X11365000Y-15534167D01*
X11384048Y-15524643D01*
X11412619Y-15524643D01*
X11431667Y-15534167D01*
X11441190Y-15553214D01*
X11441190Y-15657976D01*
X11536428Y-15657976D02*
X11536428Y-15524643D01*
X11536428Y-15543690D02*
X11545952Y-15534167D01*
X11565000Y-15524643D01*
X11593571Y-15524643D01*
X11612619Y-15534167D01*
X11622143Y-15553214D01*
X11622143Y-15657976D01*
X11622143Y-15553214D02*
X11631667Y-15534167D01*
X11650714Y-15524643D01*
X11679286Y-15524643D01*
X11698333Y-15534167D01*
X11707857Y-15553214D01*
X11707857Y-15657976D01*
X12098333Y-15448452D02*
X11926905Y-15705595D01*
X12355476Y-15457976D02*
X12374524Y-15457976D01*
X12393571Y-15467500D01*
X12403095Y-15477024D01*
X12412619Y-15496071D01*
X12422143Y-15534167D01*
X12422143Y-15581786D01*
X12412619Y-15619881D01*
X12403095Y-15638928D01*
X12393571Y-15648452D01*
X12374524Y-15657976D01*
X12355476Y-15657976D01*
X12336428Y-15648452D01*
X12326905Y-15638928D01*
X12317381Y-15619881D01*
X12307857Y-15581786D01*
X12307857Y-15534167D01*
X12317381Y-15496071D01*
X12326905Y-15477024D01*
X12336428Y-15467500D01*
X12355476Y-15457976D01*
X12507857Y-15638928D02*
X12517381Y-15648452D01*
X12507857Y-15657976D01*
X12498333Y-15648452D01*
X12507857Y-15638928D01*
X12507857Y-15657976D01*
X12707857Y-15657976D02*
X12593571Y-15657976D01*
X12650714Y-15657976D02*
X12650714Y-15457976D01*
X12631667Y-15486548D01*
X12612619Y-15505595D01*
X12593571Y-15515119D01*
X12784048Y-15477024D02*
X12793571Y-15467500D01*
X12812619Y-15457976D01*
X12860238Y-15457976D01*
X12879286Y-15467500D01*
X12888809Y-15477024D01*
X12898333Y-15496071D01*
X12898333Y-15515119D01*
X12888809Y-15543690D01*
X12774524Y-15657976D01*
X12898333Y-15657976D01*
X13069762Y-15457976D02*
X13031667Y-15457976D01*
X13012619Y-15467500D01*
X13003095Y-15477024D01*
X12984048Y-15505595D01*
X12974524Y-15543690D01*
X12974524Y-15619881D01*
X12984048Y-15638928D01*
X12993571Y-15648452D01*
X13012619Y-15657976D01*
X13050714Y-15657976D01*
X13069762Y-15648452D01*
X13079286Y-15638928D01*
X13088809Y-15619881D01*
X13088809Y-15572262D01*
X13079286Y-15553214D01*
X13069762Y-15543690D01*
X13050714Y-15534167D01*
X13012619Y-15534167D01*
X12993571Y-15543690D01*
X12984048Y-15553214D01*
X12974524Y-15572262D01*
X13212619Y-15457976D02*
X13231667Y-15457976D01*
X13250714Y-15467500D01*
X13260238Y-15477024D01*
X13269762Y-15496071D01*
X13279286Y-15534167D01*
X13279286Y-15581786D01*
X13269762Y-15619881D01*
X13260238Y-15638928D01*
X13250714Y-15648452D01*
X13231667Y-15657976D01*
X13212619Y-15657976D01*
X13193571Y-15648452D01*
X13184048Y-15638928D01*
X13174524Y-15619881D01*
X13165000Y-15581786D01*
X13165000Y-15534167D01*
X13174524Y-15496071D01*
X13184048Y-15477024D01*
X13193571Y-15467500D01*
X13212619Y-15457976D01*
X13355476Y-15457976D02*
X13355476Y-15496071D01*
X13431667Y-15457976D02*
X13431667Y-15496071D01*
X13726905Y-15734167D02*
X13717381Y-15724643D01*
X13698333Y-15696071D01*
X13688809Y-15677024D01*
X13679286Y-15648452D01*
X13669762Y-15600833D01*
X13669762Y-15562738D01*
X13679286Y-15515119D01*
X13688809Y-15486548D01*
X13698333Y-15467500D01*
X13717381Y-15438928D01*
X13726905Y-15429405D01*
X13888809Y-15524643D02*
X13888809Y-15657976D01*
X13841190Y-15448452D02*
X13793571Y-15591309D01*
X13917381Y-15591309D01*
X14145952Y-15657976D02*
X14145952Y-15457976D01*
X14231667Y-15657976D02*
X14231667Y-15553214D01*
X14222143Y-15534167D01*
X14203095Y-15524643D01*
X14174524Y-15524643D01*
X14155476Y-15534167D01*
X14145952Y-15543690D01*
X14355476Y-15657976D02*
X14336428Y-15648452D01*
X14326905Y-15638928D01*
X14317381Y-15619881D01*
X14317381Y-15562738D01*
X14326905Y-15543690D01*
X14336428Y-15534167D01*
X14355476Y-15524643D01*
X14384048Y-15524643D01*
X14403095Y-15534167D01*
X14412619Y-15543690D01*
X14422143Y-15562738D01*
X14422143Y-15619881D01*
X14412619Y-15638928D01*
X14403095Y-15648452D01*
X14384048Y-15657976D01*
X14355476Y-15657976D01*
X14536428Y-15657976D02*
X14517381Y-15648452D01*
X14507857Y-15629405D01*
X14507857Y-15457976D01*
X14688809Y-15648452D02*
X14669762Y-15657976D01*
X14631667Y-15657976D01*
X14612619Y-15648452D01*
X14603095Y-15629405D01*
X14603095Y-15553214D01*
X14612619Y-15534167D01*
X14631667Y-15524643D01*
X14669762Y-15524643D01*
X14688809Y-15534167D01*
X14698333Y-15553214D01*
X14698333Y-15572262D01*
X14603095Y-15591309D01*
X14774524Y-15648452D02*
X14793571Y-15657976D01*
X14831667Y-15657976D01*
X14850714Y-15648452D01*
X14860238Y-15629405D01*
X14860238Y-15619881D01*
X14850714Y-15600833D01*
X14831667Y-15591309D01*
X14803095Y-15591309D01*
X14784048Y-15581786D01*
X14774524Y-15562738D01*
X14774524Y-15553214D01*
X14784048Y-15534167D01*
X14803095Y-15524643D01*
X14831667Y-15524643D01*
X14850714Y-15534167D01*
X14926905Y-15734167D02*
X14936428Y-15724643D01*
X14955476Y-15696071D01*
X14965000Y-15677024D01*
X14974524Y-15648452D01*
X14984048Y-15600833D01*
X14984048Y-15562738D01*
X14974524Y-15515119D01*
X14965000Y-15486548D01*
X14955476Y-15467500D01*
X14936428Y-15438928D01*
X14926905Y-15429405D01*
X15288809Y-15734167D02*
X15279286Y-15724643D01*
X15260238Y-15696071D01*
X15250714Y-15677024D01*
X15241190Y-15648452D01*
X15231667Y-15600833D01*
X15231667Y-15562738D01*
X15241190Y-15515119D01*
X15250714Y-15486548D01*
X15260238Y-15467500D01*
X15279286Y-15438928D01*
X15288809Y-15429405D01*
X15365000Y-15524643D02*
X15365000Y-15657976D01*
X15365000Y-15543690D02*
X15374524Y-15534167D01*
X15393571Y-15524643D01*
X15422143Y-15524643D01*
X15441190Y-15534167D01*
X15450714Y-15553214D01*
X15450714Y-15657976D01*
X15574524Y-15657976D02*
X15555476Y-15648452D01*
X15545952Y-15638928D01*
X15536428Y-15619881D01*
X15536428Y-15562738D01*
X15545952Y-15543690D01*
X15555476Y-15534167D01*
X15574524Y-15524643D01*
X15603095Y-15524643D01*
X15622143Y-15534167D01*
X15631667Y-15543690D01*
X15641190Y-15562738D01*
X15641190Y-15619881D01*
X15631667Y-15638928D01*
X15622143Y-15648452D01*
X15603095Y-15657976D01*
X15574524Y-15657976D01*
X15698333Y-15524643D02*
X15774524Y-15524643D01*
X15726905Y-15457976D02*
X15726905Y-15629405D01*
X15736428Y-15648452D01*
X15755476Y-15657976D01*
X15774524Y-15657976D01*
X15993571Y-15524643D02*
X15993571Y-15724643D01*
X15993571Y-15534167D02*
X16012619Y-15524643D01*
X16050714Y-15524643D01*
X16069762Y-15534167D01*
X16079286Y-15543690D01*
X16088809Y-15562738D01*
X16088809Y-15619881D01*
X16079286Y-15638928D01*
X16069762Y-15648452D01*
X16050714Y-15657976D01*
X16012619Y-15657976D01*
X15993571Y-15648452D01*
X16203095Y-15657976D02*
X16184048Y-15648452D01*
X16174524Y-15629405D01*
X16174524Y-15457976D01*
X16365000Y-15657976D02*
X16365000Y-15553214D01*
X16355476Y-15534167D01*
X16336428Y-15524643D01*
X16298333Y-15524643D01*
X16279286Y-15534167D01*
X16365000Y-15648452D02*
X16345952Y-15657976D01*
X16298333Y-15657976D01*
X16279286Y-15648452D01*
X16269762Y-15629405D01*
X16269762Y-15610357D01*
X16279286Y-15591309D01*
X16298333Y-15581786D01*
X16345952Y-15581786D01*
X16365000Y-15572262D01*
X16431667Y-15524643D02*
X16507857Y-15524643D01*
X16460238Y-15457976D02*
X16460238Y-15629405D01*
X16469762Y-15648452D01*
X16488809Y-15657976D01*
X16507857Y-15657976D01*
X16650714Y-15648452D02*
X16631667Y-15657976D01*
X16593571Y-15657976D01*
X16574524Y-15648452D01*
X16565000Y-15629405D01*
X16565000Y-15553214D01*
X16574524Y-15534167D01*
X16593571Y-15524643D01*
X16631667Y-15524643D01*
X16650714Y-15534167D01*
X16660238Y-15553214D01*
X16660238Y-15572262D01*
X16565000Y-15591309D01*
X16831667Y-15657976D02*
X16831667Y-15457976D01*
X16831667Y-15648452D02*
X16812619Y-15657976D01*
X16774524Y-15657976D01*
X16755476Y-15648452D01*
X16745952Y-15638928D01*
X16736428Y-15619881D01*
X16736428Y-15562738D01*
X16745952Y-15543690D01*
X16755476Y-15534167D01*
X16774524Y-15524643D01*
X16812619Y-15524643D01*
X16831667Y-15534167D01*
X16907857Y-15734167D02*
X16917381Y-15724643D01*
X16936429Y-15696071D01*
X16945952Y-15677024D01*
X16955476Y-15648452D01*
X16965000Y-15600833D01*
X16965000Y-15562738D01*
X16955476Y-15515119D01*
X16945952Y-15486548D01*
X16936429Y-15467500D01*
X16917381Y-15438928D01*
X16907857Y-15429405D01*
M02*
